<?xml version="1.0" standalone="no"?>
<!DOCTYPE svg PUBLIC "-//W3C//DTD SVG 1.1//EN" "http://www.w3.org/Graphics/SVG/1.1/DTD/svg11.dtd" >
<svg xmlns="http://www.w3.org/2000/svg" xmlns:xlink="http://www.w3.org/1999/xlink" version="1.1">
<metadata>
Created by FontForge 20201107 at Tue Jan 21 20:40:33 2025
 By 
</metadata>
<defs>
<font id="Evex1001" horiz-adv-x="598" >
  <font-face 
    font-family="Chunk Black"
    font-weight="900"
    font-stretch="normal"
    units-per-em="1000"
    panose-1="0 0 0 0 0 0 0 0 0 0"
    ascent="750"
    descent="-250"
    bbox="5 -129 7635 626"
    underline-thickness="50"
    underline-position="-125"
    unicode-range="U+000D-1CA8"
  />
<missing-glyph 
d="M92 196v-98q2 -1 9 -1q18 0 24.5 12t6.5 38t-6.5 38t-24.5 12q-6 0 -9 -1zM213 137v-38h47v-24h-76v145h76v-25h-47v-34h40v-24h-40zM63 75v143q26 4 37 4q33 0 47 -18t14 -57t-14.5 -56.5t-47.5 -17.5q-23 0 -36 2zM344 140l19 80h40l6 -145h-29q0 53 -3 104l-20 -82
h-27l-20 82h-1l-2 -104h-28q2 84 7 145h39zM441 90.5q-12 17.5 -12 56.5t12 57t41 18t41.5 -18t12.5 -57t-12.5 -56.5t-41.5 -17.5t-41 17.5zM463 185.5q-5 -11.5 -5 -38.5q0 -26 5 -38t19 -12q15 0 20 12t5 38q0 27 -5 38.5t-20 11.5q-14 0 -19 -11.5zM520 476
q14 -20 14 -43q0 -21 -16.5 -35t-35.5 -17q-54 -6 -94 -23.5t-72 -48.5q11 24 30.5 64t54 81.5t71.5 41.5q34 0 48 -20zM215.5 402.5q34.5 -41.5 52 -81.5t27.5 -64q-30 38 -68.5 55t-87.5 17q-24 0 -43 15t-19 37q0 26 16.5 44.5t45.5 18.5q42 0 76.5 -41.5zM340 518
q0 -34 -10 -71t-21 -63.5t-14 -33.5q1 8 1 23q0 79 -62 138q-21 21 -21 49q0 19 12 32q20 20 46 20q23 0 43 -19q26 -25 26 -75z" />
    <glyph glyph-name=".notdef" 
d="M92 196v-98q2 -1 9 -1q18 0 24.5 12t6.5 38t-6.5 38t-24.5 12q-6 0 -9 -1zM213 137v-38h47v-24h-76v145h76v-25h-47v-34h40v-24h-40zM63 75v143q26 4 37 4q33 0 47 -18t14 -57t-14.5 -56.5t-47.5 -17.5q-23 0 -36 2zM344 140l19 80h40l6 -145h-29q0 53 -3 104l-20 -82
h-27l-20 82h-1l-2 -104h-28q2 84 7 145h39zM441 90.5q-12 17.5 -12 56.5t12 57t41 18t41.5 -18t12.5 -57t-12.5 -56.5t-41.5 -17.5t-41 17.5zM463 185.5q-5 -11.5 -5 -38.5q0 -26 5 -38t19 -12q15 0 20 12t5 38q0 27 -5 38.5t-20 11.5q-14 0 -19 -11.5zM520 476
q14 -20 14 -43q0 -21 -16.5 -35t-35.5 -17q-54 -6 -94 -23.5t-72 -48.5q11 24 30.5 64t54 81.5t71.5 41.5q34 0 48 -20zM215.5 402.5q34.5 -41.5 52 -81.5t27.5 -64q-30 38 -68.5 55t-87.5 17q-24 0 -43 15t-19 37q0 26 16.5 44.5t45.5 18.5q42 0 76.5 -41.5zM340 518
q0 -34 -10 -71t-21 -63.5t-14 -33.5q1 8 1 23q0 79 -62 138q-21 21 -21 49q0 19 12 32q20 20 46 20q23 0 43 -19q26 -25 26 -75z" />
    <glyph glyph-name=".null" horiz-adv-x="0" 
 />
    <glyph glyph-name="uni000D" unicode="&#xd;" horiz-adv-x="250" 
 />
    <glyph glyph-name="space" unicode=" " horiz-adv-x="150" 
 />
    <glyph glyph-name="space" unicode="&#xa0;" horiz-adv-x="150" 
 />
    <glyph glyph-name="exclam" unicode="!" 
d="M92 196v-98q2 -1 9 -1q18 0 24.5 12t6.5 38t-6.5 38t-24.5 12q-6 0 -9 -1zM213 137v-38h47v-24h-76v145h76v-25h-47v-34h40v-24h-40zM63 75v143q26 4 37 4q33 0 47 -18t14 -57t-14.5 -56.5t-47.5 -17.5q-23 0 -36 2zM344 140l19 80h40l6 -145h-29q0 53 -3 104l-20 -82
h-27l-20 82h-1l-2 -104h-28q2 84 7 145h39zM441 90.5q-12 17.5 -12 56.5t12 57t41 18t41.5 -18t12.5 -57t-12.5 -56.5t-41.5 -17.5t-41 17.5zM463 185.5q-5 -11.5 -5 -38.5q0 -26 5 -38t19 -12q15 0 20 12t5 38q0 27 -5 38.5t-20 11.5q-14 0 -19 -11.5zM520 476
q14 -20 14 -43q0 -21 -16.5 -35t-35.5 -17q-54 -6 -94 -23.5t-72 -48.5q11 24 30.5 64t54 81.5t71.5 41.5q34 0 48 -20zM215.5 402.5q34.5 -41.5 52 -81.5t27.5 -64q-30 38 -68.5 55t-87.5 17q-24 0 -43 15t-19 37q0 26 16.5 44.5t45.5 18.5q42 0 76.5 -41.5zM340 518
q0 -34 -10 -71t-21 -63.5t-14 -33.5q1 8 1 23q0 79 -62 138q-21 21 -21 49q0 19 12 32q20 20 46 20q23 0 43 -19q26 -25 26 -75z" />
    <glyph glyph-name="quotedbl" unicode="&#x22;" 
d="M92 196v-98q2 -1 9 -1q18 0 24.5 12t6.5 38t-6.5 38t-24.5 12q-6 0 -9 -1zM213 137v-38h47v-24h-76v145h76v-25h-47v-34h40v-24h-40zM63 75v143q26 4 37 4q33 0 47 -18t14 -57t-14.5 -56.5t-47.5 -17.5q-23 0 -36 2zM344 140l19 80h40l6 -145h-29q0 53 -3 104l-20 -82
h-27l-20 82h-1l-2 -104h-28q2 84 7 145h39zM441 90.5q-12 17.5 -12 56.5t12 57t41 18t41.5 -18t12.5 -57t-12.5 -56.5t-41.5 -17.5t-41 17.5zM463 185.5q-5 -11.5 -5 -38.5q0 -26 5 -38t19 -12q15 0 20 12t5 38q0 27 -5 38.5t-20 11.5q-14 0 -19 -11.5zM520 476
q14 -20 14 -43q0 -21 -16.5 -35t-35.5 -17q-54 -6 -94 -23.5t-72 -48.5q11 24 30.5 64t54 81.5t71.5 41.5q34 0 48 -20zM215.5 402.5q34.5 -41.5 52 -81.5t27.5 -64q-30 38 -68.5 55t-87.5 17q-24 0 -43 15t-19 37q0 26 16.5 44.5t45.5 18.5q42 0 76.5 -41.5zM340 518
q0 -34 -10 -71t-21 -63.5t-14 -33.5q1 8 1 23q0 79 -62 138q-21 21 -21 49q0 19 12 32q20 20 46 20q23 0 43 -19q26 -25 26 -75z" />
    <glyph glyph-name="numbersign" unicode="#" 
d="M92 196v-98q2 -1 9 -1q18 0 24.5 12t6.5 38t-6.5 38t-24.5 12q-6 0 -9 -1zM213 137v-38h47v-24h-76v145h76v-25h-47v-34h40v-24h-40zM63 75v143q26 4 37 4q33 0 47 -18t14 -57t-14.5 -56.5t-47.5 -17.5q-23 0 -36 2zM344 140l19 80h40l6 -145h-29q0 53 -3 104l-20 -82
h-27l-20 82h-1l-2 -104h-28q2 84 7 145h39zM441 90.5q-12 17.5 -12 56.5t12 57t41 18t41.5 -18t12.5 -57t-12.5 -56.5t-41.5 -17.5t-41 17.5zM463 185.5q-5 -11.5 -5 -38.5q0 -26 5 -38t19 -12q15 0 20 12t5 38q0 27 -5 38.5t-20 11.5q-14 0 -19 -11.5zM520 476
q14 -20 14 -43q0 -21 -16.5 -35t-35.5 -17q-54 -6 -94 -23.5t-72 -48.5q11 24 30.5 64t54 81.5t71.5 41.5q34 0 48 -20zM215.5 402.5q34.5 -41.5 52 -81.5t27.5 -64q-30 38 -68.5 55t-87.5 17q-24 0 -43 15t-19 37q0 26 16.5 44.5t45.5 18.5q42 0 76.5 -41.5zM340 518
q0 -34 -10 -71t-21 -63.5t-14 -33.5q1 8 1 23q0 79 -62 138q-21 21 -21 49q0 19 12 32q20 20 46 20q23 0 43 -19q26 -25 26 -75z" />
    <glyph glyph-name="dollar" unicode="$" 
d="M92 196v-98q2 -1 9 -1q18 0 24.5 12t6.5 38t-6.5 38t-24.5 12q-6 0 -9 -1zM213 137v-38h47v-24h-76v145h76v-25h-47v-34h40v-24h-40zM63 75v143q26 4 37 4q33 0 47 -18t14 -57t-14.5 -56.5t-47.5 -17.5q-23 0 -36 2zM344 140l19 80h40l6 -145h-29q0 53 -3 104l-20 -82
h-27l-20 82h-1l-2 -104h-28q2 84 7 145h39zM441 90.5q-12 17.5 -12 56.5t12 57t41 18t41.5 -18t12.5 -57t-12.5 -56.5t-41.5 -17.5t-41 17.5zM463 185.5q-5 -11.5 -5 -38.5q0 -26 5 -38t19 -12q15 0 20 12t5 38q0 27 -5 38.5t-20 11.5q-14 0 -19 -11.5zM520 476
q14 -20 14 -43q0 -21 -16.5 -35t-35.5 -17q-54 -6 -94 -23.5t-72 -48.5q11 24 30.5 64t54 81.5t71.5 41.5q34 0 48 -20zM215.5 402.5q34.5 -41.5 52 -81.5t27.5 -64q-30 38 -68.5 55t-87.5 17q-24 0 -43 15t-19 37q0 26 16.5 44.5t45.5 18.5q42 0 76.5 -41.5zM340 518
q0 -34 -10 -71t-21 -63.5t-14 -33.5q1 8 1 23q0 79 -62 138q-21 21 -21 49q0 19 12 32q20 20 46 20q23 0 43 -19q26 -25 26 -75z" />
    <glyph glyph-name="percent" unicode="%" 
d="M92 196v-98q2 -1 9 -1q18 0 24.5 12t6.5 38t-6.5 38t-24.5 12q-6 0 -9 -1zM213 137v-38h47v-24h-76v145h76v-25h-47v-34h40v-24h-40zM63 75v143q26 4 37 4q33 0 47 -18t14 -57t-14.5 -56.5t-47.5 -17.5q-23 0 -36 2zM344 140l19 80h40l6 -145h-29q0 53 -3 104l-20 -82
h-27l-20 82h-1l-2 -104h-28q2 84 7 145h39zM441 90.5q-12 17.5 -12 56.5t12 57t41 18t41.5 -18t12.5 -57t-12.5 -56.5t-41.5 -17.5t-41 17.5zM463 185.5q-5 -11.5 -5 -38.5q0 -26 5 -38t19 -12q15 0 20 12t5 38q0 27 -5 38.5t-20 11.5q-14 0 -19 -11.5zM520 476
q14 -20 14 -43q0 -21 -16.5 -35t-35.5 -17q-54 -6 -94 -23.5t-72 -48.5q11 24 30.5 64t54 81.5t71.5 41.5q34 0 48 -20zM215.5 402.5q34.5 -41.5 52 -81.5t27.5 -64q-30 38 -68.5 55t-87.5 17q-24 0 -43 15t-19 37q0 26 16.5 44.5t45.5 18.5q42 0 76.5 -41.5zM340 518
q0 -34 -10 -71t-21 -63.5t-14 -33.5q1 8 1 23q0 79 -62 138q-21 21 -21 49q0 19 12 32q20 20 46 20q23 0 43 -19q26 -25 26 -75z" />
    <glyph glyph-name="ampersand" unicode="&#x26;" 
d="M92 196v-98q2 -1 9 -1q18 0 24.5 12t6.5 38t-6.5 38t-24.5 12q-6 0 -9 -1zM213 137v-38h47v-24h-76v145h76v-25h-47v-34h40v-24h-40zM63 75v143q26 4 37 4q33 0 47 -18t14 -57t-14.5 -56.5t-47.5 -17.5q-23 0 -36 2zM344 140l19 80h40l6 -145h-29q0 53 -3 104l-20 -82
h-27l-20 82h-1l-2 -104h-28q2 84 7 145h39zM441 90.5q-12 17.5 -12 56.5t12 57t41 18t41.5 -18t12.5 -57t-12.5 -56.5t-41.5 -17.5t-41 17.5zM463 185.5q-5 -11.5 -5 -38.5q0 -26 5 -38t19 -12q15 0 20 12t5 38q0 27 -5 38.5t-20 11.5q-14 0 -19 -11.5zM520 476
q14 -20 14 -43q0 -21 -16.5 -35t-35.5 -17q-54 -6 -94 -23.5t-72 -48.5q11 24 30.5 64t54 81.5t71.5 41.5q34 0 48 -20zM215.5 402.5q34.5 -41.5 52 -81.5t27.5 -64q-30 38 -68.5 55t-87.5 17q-24 0 -43 15t-19 37q0 26 16.5 44.5t45.5 18.5q42 0 76.5 -41.5zM340 518
q0 -34 -10 -71t-21 -63.5t-14 -33.5q1 8 1 23q0 79 -62 138q-21 21 -21 49q0 19 12 32q20 20 46 20q23 0 43 -19q26 -25 26 -75z" />
    <glyph glyph-name="quotesingle" unicode="'" 
d="M92 196v-98q2 -1 9 -1q18 0 24.5 12t6.5 38t-6.5 38t-24.5 12q-6 0 -9 -1zM213 137v-38h47v-24h-76v145h76v-25h-47v-34h40v-24h-40zM63 75v143q26 4 37 4q33 0 47 -18t14 -57t-14.5 -56.5t-47.5 -17.5q-23 0 -36 2zM344 140l19 80h40l6 -145h-29q0 53 -3 104l-20 -82
h-27l-20 82h-1l-2 -104h-28q2 84 7 145h39zM441 90.5q-12 17.5 -12 56.5t12 57t41 18t41.5 -18t12.5 -57t-12.5 -56.5t-41.5 -17.5t-41 17.5zM463 185.5q-5 -11.5 -5 -38.5q0 -26 5 -38t19 -12q15 0 20 12t5 38q0 27 -5 38.5t-20 11.5q-14 0 -19 -11.5zM520 476
q14 -20 14 -43q0 -21 -16.5 -35t-35.5 -17q-54 -6 -94 -23.5t-72 -48.5q11 24 30.5 64t54 81.5t71.5 41.5q34 0 48 -20zM215.5 402.5q34.5 -41.5 52 -81.5t27.5 -64q-30 38 -68.5 55t-87.5 17q-24 0 -43 15t-19 37q0 26 16.5 44.5t45.5 18.5q42 0 76.5 -41.5zM340 518
q0 -34 -10 -71t-21 -63.5t-14 -33.5q1 8 1 23q0 79 -62 138q-21 21 -21 49q0 19 12 32q20 20 46 20q23 0 43 -19q26 -25 26 -75z" />
    <glyph glyph-name="parenleft" unicode="(" 
d="M460 4q28 -28 28 -53q0 -23 -25 -48q-28 -32 -58 -32q-29 0 -77 38q-32 28 -65 77.5t-55.5 117.5t-22.5 144q0 77 22.5 145.5t55.5 117.5t65 76q45 39 78 39q29 0 57 -31q12 -13 18.5 -24.5t6.5 -24.5q0 -24 -28 -52q-47 -47 -79 -105t-32 -141q0 -138 111 -244z" />
    <glyph glyph-name="parenright" unicode=")" 
d="M222 389q-32 58 -79 105q-28 28 -28 52q0 13 6.5 24.5t18.5 24.5q28 31 57 31q33 0 78 -39q32 -27 65 -76t55.5 -117.5t22.5 -145.5q0 -76 -22.5 -144t-55.5 -117.5t-65 -77.5q-47 -38 -77 -38t-58 32q-25 25 -25 48q0 25 28 53q111 106 111 244q0 83 -32 141z" />
    <glyph glyph-name="asterisk" unicode="*" 
d="M92 196v-98q2 -1 9 -1q18 0 24.5 12t6.5 38t-6.5 38t-24.5 12q-6 0 -9 -1zM213 137v-38h47v-24h-76v145h76v-25h-47v-34h40v-24h-40zM63 75v143q26 4 37 4q33 0 47 -18t14 -57t-14.5 -56.5t-47.5 -17.5q-23 0 -36 2zM344 140l19 80h40l6 -145h-29q0 53 -3 104l-20 -82
h-27l-20 82h-1l-2 -104h-28q2 84 7 145h39zM441 90.5q-12 17.5 -12 56.5t12 57t41 18t41.5 -18t12.5 -57t-12.5 -56.5t-41.5 -17.5t-41 17.5zM463 185.5q-5 -11.5 -5 -38.5q0 -26 5 -38t19 -12q15 0 20 12t5 38q0 27 -5 38.5t-20 11.5q-14 0 -19 -11.5zM520 476
q14 -20 14 -43q0 -21 -16.5 -35t-35.5 -17q-54 -6 -94 -23.5t-72 -48.5q11 24 30.5 64t54 81.5t71.5 41.5q34 0 48 -20zM215.5 402.5q34.5 -41.5 52 -81.5t27.5 -64q-30 38 -68.5 55t-87.5 17q-24 0 -43 15t-19 37q0 26 16.5 44.5t45.5 18.5q42 0 76.5 -41.5zM340 518
q0 -34 -10 -71t-21 -63.5t-14 -33.5q1 8 1 23q0 79 -62 138q-21 21 -21 49q0 19 12 32q20 20 46 20q23 0 43 -19q26 -25 26 -75z" />
    <glyph glyph-name="plus" unicode="+" 
d="M92 196v-98q2 -1 9 -1q18 0 24.5 12t6.5 38t-6.5 38t-24.5 12q-6 0 -9 -1zM213 137v-38h47v-24h-76v145h76v-25h-47v-34h40v-24h-40zM63 75v143q26 4 37 4q33 0 47 -18t14 -57t-14.5 -56.5t-47.5 -17.5q-23 0 -36 2zM344 140l19 80h40l6 -145h-29q0 53 -3 104l-20 -82
h-27l-20 82h-1l-2 -104h-28q2 84 7 145h39zM441 90.5q-12 17.5 -12 56.5t12 57t41 18t41.5 -18t12.5 -57t-12.5 -56.5t-41.5 -17.5t-41 17.5zM463 185.5q-5 -11.5 -5 -38.5q0 -26 5 -38t19 -12q15 0 20 12t5 38q0 27 -5 38.5t-20 11.5q-14 0 -19 -11.5zM520 476
q14 -20 14 -43q0 -21 -16.5 -35t-35.5 -17q-54 -6 -94 -23.5t-72 -48.5q11 24 30.5 64t54 81.5t71.5 41.5q34 0 48 -20zM215.5 402.5q34.5 -41.5 52 -81.5t27.5 -64q-30 38 -68.5 55t-87.5 17q-24 0 -43 15t-19 37q0 26 16.5 44.5t45.5 18.5q42 0 76.5 -41.5zM340 518
q0 -34 -10 -71t-21 -63.5t-14 -33.5q1 8 1 23q0 79 -62 138q-21 21 -21 49q0 19 12 32q20 20 46 20q23 0 43 -19q26 -25 26 -75z" />
    <glyph glyph-name="comma" unicode="," horiz-adv-x="263" 
d="M191 -30.5q-52 -55.5 -113 -86.5q-6 -3 -11 -3q-10 0 -18 7t-8 15t8 15q58 46 58 70q0 9 -7 16.5t-22 17.5q-23 16 -35.5 31t-12.5 41q0 38 31.5 65t75.5 27q45 0 75.5 -30.5t30.5 -80.5q0 -49 -52 -104.5z" />
    <glyph glyph-name="hyphen" unicode="-" 
d="M92 196v-98q2 -1 9 -1q18 0 24.5 12t6.5 38t-6.5 38t-24.5 12q-6 0 -9 -1zM213 137v-38h47v-24h-76v145h76v-25h-47v-34h40v-24h-40zM63 75v143q26 4 37 4q33 0 47 -18t14 -57t-14.5 -56.5t-47.5 -17.5q-23 0 -36 2zM344 140l19 80h40l6 -145h-29q0 53 -3 104l-20 -82
h-27l-20 82h-1l-2 -104h-28q2 84 7 145h39zM441 90.5q-12 17.5 -12 56.5t12 57t41 18t41.5 -18t12.5 -57t-12.5 -56.5t-41.5 -17.5t-41 17.5zM463 185.5q-5 -11.5 -5 -38.5q0 -26 5 -38t19 -12q15 0 20 12t5 38q0 27 -5 38.5t-20 11.5q-14 0 -19 -11.5zM520 476
q14 -20 14 -43q0 -21 -16.5 -35t-35.5 -17q-54 -6 -94 -23.5t-72 -48.5q11 24 30.5 64t54 81.5t71.5 41.5q34 0 48 -20zM215.5 402.5q34.5 -41.5 52 -81.5t27.5 -64q-30 38 -68.5 55t-87.5 17q-24 0 -43 15t-19 37q0 26 16.5 44.5t45.5 18.5q42 0 76.5 -41.5zM340 518
q0 -34 -10 -71t-21 -63.5t-14 -33.5q1 8 1 23q0 79 -62 138q-21 21 -21 49q0 19 12 32q20 20 46 20q23 0 43 -19q26 -25 26 -75z" />
    <glyph glyph-name="period" unicode="." horiz-adv-x="267" 
d="M215.5 27.5q-31.5 -27.5 -76.5 -27.5t-77 27.5t-32 66.5t32 67t77 28t76.5 -28t31.5 -67t-31.5 -66.5z" />
    <glyph glyph-name="slash" unicode="/" 
d="M92 196v-98q2 -1 9 -1q18 0 24.5 12t6.5 38t-6.5 38t-24.5 12q-6 0 -9 -1zM213 137v-38h47v-24h-76v145h76v-25h-47v-34h40v-24h-40zM63 75v143q26 4 37 4q33 0 47 -18t14 -57t-14.5 -56.5t-47.5 -17.5q-23 0 -36 2zM344 140l19 80h40l6 -145h-29q0 53 -3 104l-20 -82
h-27l-20 82h-1l-2 -104h-28q2 84 7 145h39zM441 90.5q-12 17.5 -12 56.5t12 57t41 18t41.5 -18t12.5 -57t-12.5 -56.5t-41.5 -17.5t-41 17.5zM463 185.5q-5 -11.5 -5 -38.5q0 -26 5 -38t19 -12q15 0 20 12t5 38q0 27 -5 38.5t-20 11.5q-14 0 -19 -11.5zM520 476
q14 -20 14 -43q0 -21 -16.5 -35t-35.5 -17q-54 -6 -94 -23.5t-72 -48.5q11 24 30.5 64t54 81.5t71.5 41.5q34 0 48 -20zM215.5 402.5q34.5 -41.5 52 -81.5t27.5 -64q-30 38 -68.5 55t-87.5 17q-24 0 -43 15t-19 37q0 26 16.5 44.5t45.5 18.5q42 0 76.5 -41.5zM340 518
q0 -34 -10 -71t-21 -63.5t-14 -33.5q1 8 1 23q0 79 -62 138q-21 21 -21 49q0 19 12 32q20 20 46 20q23 0 43 -19q26 -25 26 -75z" />
    <glyph glyph-name="zero" unicode="0" horiz-adv-x="552" 
d="M329 159q17 52 17 137q0 189 -70 189q-36 0 -53 -52.5t-17 -136.5q0 -189 70 -189q36 0 53 52zM57.5 434q34.5 66 92.5 104t126 38q77 0 134 -37t87.5 -102.5t30.5 -148.5q0 -81 -32.5 -146.5t-90 -103.5t-129.5 -38q-77 0 -134 37.5t-88 103t-31 147.5q0 80 34.5 146z
" />
    <glyph glyph-name="one" unicode="1" horiz-adv-x="396" 
d="M330 566q18 -8 23.5 -26t5.5 -53v-400q0 -35 -7 -53t-26 -26t-56 -8q-39 0 -57 9t-23.5 26.5t-5.5 51.5v321h-1q-33 -39 -46 -49q-35 -29 -61 -29t-49 29q-22 33 -22 59q0 24 18 39q7 6 36 22.5t71 39.5q27 15 54 29.5t45 20t45 5.5q38 0 56 -8z" />
    <glyph glyph-name="two" unicode="2" horiz-adv-x="533" 
d="M413 1q48 0 72 9t32 29t8 58q0 35 -11 60t-35 28q-5 1 -13 1q-16 0 -38 -8q-45 -14 -88 -19q-29 -4 -40 -2l-1 3q67 41 113.5 100.5t46.5 125.5q0 48 -21 90.5t-69.5 69.5t-124.5 27q-62 0 -113 -24.5t-84 -60.5q-26 -28 -26 -56q0 -35 35 -70q38 -39 70 -39q18 0 36 13
q10 7 15.5 18t11.5 30q9 28 20 42t36 14q22 0 32 -15.5t10 -35.5q0 -41 -23 -76.5t-71 -72.5q-12 -10 -36 -28q-71 -57 -103.5 -91t-32.5 -66t22.5 -43.5t81.5 -11.5z" />
    <glyph glyph-name="three" unicode="3" horiz-adv-x="502" 
d="M391 284q34 -8 58 -40.5t24 -88.5q0 -40 -24.5 -75.5t-76 -57.5t-128.5 -22q-73 0 -127 26.5t-79 68.5q-16 29 -16 47q0 19 13 34t39 28q32 16 56 16q32 0 51 -25q10 -12 19 -36q9 -23 18.5 -34.5t30.5 -11.5q25 0 39.5 16.5t14.5 45.5q0 27 -10.5 46.5t-37.5 19.5
q-28 0 -38.5 1t-16.5 6.5t-6 19.5v36q0 20 12 24t49 4q27 0 37.5 19t10.5 46q0 30 -14 46.5t-40 16.5q-21 0 -30.5 -11.5t-18.5 -35.5q-10 -23 -19 -36q-18 -25 -50 -25q-25 0 -57 16q-26 13 -39 28t-13 34q0 18 16 47q25 43 79 69.5t127 26.5q77 0 128.5 -22.5t76 -58
t24.5 -75.5q0 -56 -24 -88t-58 -40v-5z" />
    <glyph glyph-name="four" unicode="4" 
d="M287 450q0 5 -5.5 6.5t-8.5 -3.5l-47 -94l-33 -70q-1 -2 -1 -6q0 -6 4 -10.5t11 -4.5h79zM34.5 250.5q14.5 31.5 47.5 92.5l22 44t55 94q27 44 46 62.5t45.5 24.5t81.5 6q68 0 97.5 -18t29.5 -58v-219q3 0 11 2q20 3 31 7q30 6 38 6q12 0 20 -4q15 -7 18 -21.5t3 -53.5
q0 -32 -10 -47t-27 -19.5t-46 -4.5h-38v-65q0 -33 -10.5 -49t-26 -20.5t-39.5 -4.5l-31 -1q-31 0 -48.5 14.5t-17.5 59.5v66h-163q-54 0 -78.5 11t-24.5 42q0 22 14.5 53.5z" />
    <glyph glyph-name="five" unicode="5" horiz-adv-x="487" 
d="M279.5 226q-11.5 21 -37.5 27q-31 7 -91 7h-33q-76 0 -76 80v144q0 90 90 90q33 0 56.5 -4t48.5 -11q32 -9 53 -9q34 0 55 4.5t42 11.5l12 4t17.5 3.5t16.5 -0.5q23 -3 33 -23.5t10 -51.5q0 -11 -2 -31q-5 -37 -26.5 -51.5t-80.5 -14.5q-35 0 -69 9t-73 23q-30 11 -42 13
h-4q-11 0 -11 -9v-73q0 -5 4 -8.5t8 -2.5q32 6 77 6q111 0 156 -41t45 -131q0 -42 -20 -85t-67 -72.5t-121 -29.5q-81 0 -136 22t-79 62q-14 22 -14 44q0 38 54 65q25 13 45 13q30 0 51 -29q4 -5 17 -26q11 -20 21.5 -30t30.5 -10q26 0 38.5 18t12.5 48q0 28 -11.5 49z" />
    <glyph glyph-name="six" unicode="6" horiz-adv-x="531" 
d="M331 188q0 70 -54 70q-27 0 -39.5 -20t-12.5 -55q0 -33 10.5 -60t39.5 -27q56 0 56 92zM67 344q17 56 51 100t74.5 72t96.5 49q44 15 66 15q18 0 30 -8.5t25 -27.5q30 -44 30 -77q0 -25 -18 -37q-9 -7 -20 -9t-29 -3q-27 -2 -46 -7.5t-40 -22.5q-31 -26 -42 -64
q45 19 105 19q68 0 108.5 -46t40.5 -123q0 -67 -51 -120.5t-182 -53.5q-124 0 -170 63t-46 166q0 59 17 115z" />
    <glyph glyph-name="seven" unicode="7" horiz-adv-x="483" 
d="M79.5 138.5q25.5 38.5 80.5 102.5l25 29q19 22 79 85q34 35 48.5 51t19.5 29l1 3q0 4 -5 5.5t-12 0.5q-2 0 -39 -12q-42 -15 -76.5 -24t-69.5 -9q-59 0 -81 14.5t-27 51.5q-2 20 -2 31q0 70 43 77q12 2 16 2q19 0 50 -11q23 -7 40.5 -11t39.5 -4q26 0 64 11q48 14 94 14
q51 0 77 -34t26 -79q0 -47 -18 -89t-72 -109q-33 -41 -50 -64.5t-34 -52.5q-18 -33 -31 -73q-10 -30 -15 -39q-6 -14 -15.5 -21t-29.5 -10t-58 -3q-52 0 -73 13.5t-21 47.5q0 39 25.5 77.5z" />
    <glyph glyph-name="eight" unicode="8" horiz-adv-x="535" 
d="M312 448.5q-24 18.5 -58 18.5q-24 0 -40.5 -11t-16.5 -30q0 -18 16 -34.5t41 -23.5q12 -3 25 -3q24 0 40.5 11.5t16.5 30.5q0 23 -24 41.5zM61 241.5q31 35.5 65 53.5q4 1 4 5t-3 6q-25 18 -48.5 49t-23.5 71q0 79 64 112t152 33q89 0 152 -30t63 -102q0 -44 -26 -77.5
t-56 -55.5q-3 -2 -2.5 -6t4.5 -5q34 -13 64 -44.5t30 -88.5q0 -80 -61.5 -121t-167.5 -41q-107 0 -174 39.5t-67 113.5q0 53 31 88.5zM213 149.5q16 -16.5 41 -23.5q12 -3 25 -3q24 0 40.5 11.5t16.5 30.5q0 18 -15.5 33.5t-40.5 23.5q-13 3 -26 3q-24 0 -40.5 -11.5
t-16.5 -29.5t16 -34.5z" />
    <glyph glyph-name="nine" unicode="9" horiz-adv-x="532" 
d="M210 392q0 -70 54 -70q27 0 39.5 20t12.5 55q0 33 -10.5 60t-39.5 27q-56 0 -56 -92zM93 526.5q51 53.5 182 53.5q124 0 170 -63t46 -166q0 -59 -17 -115t-51 -100t-74.5 -72t-96.5 -49q-43 -15 -66 -15q-18 0 -30 8.5t-25 27.5q-30 44 -30 77q0 25 18 37q9 7 20 9t29 3
q27 2 46 7.5t40 22.5q31 26 42 64q-45 -19 -105 -19q-68 0 -108.5 46t-40.5 123q0 67 51 120.5z" />
    <glyph glyph-name="colon" unicode=":" horiz-adv-x="262" 
d="M210.5 290q-31.5 -28 -76.5 -28t-77 28t-32 67t32 66.5t77 27.5t76.5 -27.5t31.5 -66.5t-31.5 -67zM210.5 27.5q-31.5 -27.5 -76.5 -27.5t-77 27.5t-32 66.5t32 67t77 28t76.5 -28t31.5 -67t-31.5 -66.5z" />
    <glyph glyph-name="semicolon" unicode=";" horiz-adv-x="262" 
d="M210.5 290q-31.5 -28 -76.5 -28t-77 28t-32 67t32 66.5t77 27.5t76.5 -27.5t31.5 -66.5t-31.5 -67zM189 -30.5q-52 -55.5 -113 -86.5q-6 -3 -11 -3q-10 0 -18 7t-8 15t8 15q58 46 58 70q0 9 -7 16.5t-22 17.5q-23 16 -35.5 31t-12.5 41q0 38 31.5 65t75.5 27
q45 0 75.5 -30.5t30.5 -80.5q0 -49 -52 -104.5z" />
    <glyph glyph-name="less" unicode="&#x3c;" 
d="M92 196v-98q2 -1 9 -1q18 0 24.5 12t6.5 38t-6.5 38t-24.5 12q-6 0 -9 -1zM213 137v-38h47v-24h-76v145h76v-25h-47v-34h40v-24h-40zM63 75v143q26 4 37 4q33 0 47 -18t14 -57t-14.5 -56.5t-47.5 -17.5q-23 0 -36 2zM344 140l19 80h40l6 -145h-29q0 53 -3 104l-20 -82
h-27l-20 82h-1l-2 -104h-28q2 84 7 145h39zM441 90.5q-12 17.5 -12 56.5t12 57t41 18t41.5 -18t12.5 -57t-12.5 -56.5t-41.5 -17.5t-41 17.5zM463 185.5q-5 -11.5 -5 -38.5q0 -26 5 -38t19 -12q15 0 20 12t5 38q0 27 -5 38.5t-20 11.5q-14 0 -19 -11.5zM520 476
q14 -20 14 -43q0 -21 -16.5 -35t-35.5 -17q-54 -6 -94 -23.5t-72 -48.5q11 24 30.5 64t54 81.5t71.5 41.5q34 0 48 -20zM215.5 402.5q34.5 -41.5 52 -81.5t27.5 -64q-30 38 -68.5 55t-87.5 17q-24 0 -43 15t-19 37q0 26 16.5 44.5t45.5 18.5q42 0 76.5 -41.5zM340 518
q0 -34 -10 -71t-21 -63.5t-14 -33.5q1 8 1 23q0 79 -62 138q-21 21 -21 49q0 19 12 32q20 20 46 20q23 0 43 -19q26 -25 26 -75z" />
    <glyph glyph-name="equal" unicode="=" 
d="M92 196v-98q2 -1 9 -1q18 0 24.5 12t6.5 38t-6.5 38t-24.5 12q-6 0 -9 -1zM213 137v-38h47v-24h-76v145h76v-25h-47v-34h40v-24h-40zM63 75v143q26 4 37 4q33 0 47 -18t14 -57t-14.5 -56.5t-47.5 -17.5q-23 0 -36 2zM344 140l19 80h40l6 -145h-29q0 53 -3 104l-20 -82
h-27l-20 82h-1l-2 -104h-28q2 84 7 145h39zM441 90.5q-12 17.5 -12 56.5t12 57t41 18t41.5 -18t12.5 -57t-12.5 -56.5t-41.5 -17.5t-41 17.5zM463 185.5q-5 -11.5 -5 -38.5q0 -26 5 -38t19 -12q15 0 20 12t5 38q0 27 -5 38.5t-20 11.5q-14 0 -19 -11.5zM520 476
q14 -20 14 -43q0 -21 -16.5 -35t-35.5 -17q-54 -6 -94 -23.5t-72 -48.5q11 24 30.5 64t54 81.5t71.5 41.5q34 0 48 -20zM215.5 402.5q34.5 -41.5 52 -81.5t27.5 -64q-30 38 -68.5 55t-87.5 17q-24 0 -43 15t-19 37q0 26 16.5 44.5t45.5 18.5q42 0 76.5 -41.5zM340 518
q0 -34 -10 -71t-21 -63.5t-14 -33.5q1 8 1 23q0 79 -62 138q-21 21 -21 49q0 19 12 32q20 20 46 20q23 0 43 -19q26 -25 26 -75z" />
    <glyph glyph-name="greater" unicode="&#x3e;" 
d="M92 196v-98q2 -1 9 -1q18 0 24.5 12t6.5 38t-6.5 38t-24.5 12q-6 0 -9 -1zM213 137v-38h47v-24h-76v145h76v-25h-47v-34h40v-24h-40zM63 75v143q26 4 37 4q33 0 47 -18t14 -57t-14.5 -56.5t-47.5 -17.5q-23 0 -36 2zM344 140l19 80h40l6 -145h-29q0 53 -3 104l-20 -82
h-27l-20 82h-1l-2 -104h-28q2 84 7 145h39zM441 90.5q-12 17.5 -12 56.5t12 57t41 18t41.5 -18t12.5 -57t-12.5 -56.5t-41.5 -17.5t-41 17.5zM463 185.5q-5 -11.5 -5 -38.5q0 -26 5 -38t19 -12q15 0 20 12t5 38q0 27 -5 38.5t-20 11.5q-14 0 -19 -11.5zM520 476
q14 -20 14 -43q0 -21 -16.5 -35t-35.5 -17q-54 -6 -94 -23.5t-72 -48.5q11 24 30.5 64t54 81.5t71.5 41.5q34 0 48 -20zM215.5 402.5q34.5 -41.5 52 -81.5t27.5 -64q-30 38 -68.5 55t-87.5 17q-24 0 -43 15t-19 37q0 26 16.5 44.5t45.5 18.5q42 0 76.5 -41.5zM340 518
q0 -34 -10 -71t-21 -63.5t-14 -33.5q1 8 1 23q0 79 -62 138q-21 21 -21 49q0 19 12 32q20 20 46 20q23 0 43 -19q26 -25 26 -75z" />
    <glyph glyph-name="question" unicode="?" horiz-adv-x="426" 
d="M373 361.5q-43 -40.5 -116 -59.5q-8 -2 -15 -9.5t-15 -20.5q-14 -19 -24 -28t-25 -9q-18 0 -33 11.5t-23 32.5q-6 15 -6 25q0 12 9.5 24.5t32.5 28.5q39 28 55.5 51.5t16.5 54.5q0 27 -6.5 44t-19.5 17q-15 0 -25.5 -16.5t-31.5 -70.5q-10 -26 -25 -40t-42 -14
q-30 0 -50 22.5t-20 55.5q0 59 56 93t148 34q67 0 112.5 -17.5t67.5 -46.5t22 -63q0 -59 -43 -99.5zM255.5 27.5q-31.5 -27.5 -76.5 -27.5t-77 27.5t-32 67.5q0 39 32 66.5t77 27.5t76.5 -27.5t31.5 -66.5q0 -40 -31.5 -67.5z" />
    <glyph glyph-name="at" unicode="@" 
d="M92 196v-98q2 -1 9 -1q18 0 24.5 12t6.5 38t-6.5 38t-24.5 12q-6 0 -9 -1zM213 137v-38h47v-24h-76v145h76v-25h-47v-34h40v-24h-40zM63 75v143q26 4 37 4q33 0 47 -18t14 -57t-14.5 -56.5t-47.5 -17.5q-23 0 -36 2zM344 140l19 80h40l6 -145h-29q0 53 -3 104l-20 -82
h-27l-20 82h-1l-2 -104h-28q2 84 7 145h39zM441 90.5q-12 17.5 -12 56.5t12 57t41 18t41.5 -18t12.5 -57t-12.5 -56.5t-41.5 -17.5t-41 17.5zM463 185.5q-5 -11.5 -5 -38.5q0 -26 5 -38t19 -12q15 0 20 12t5 38q0 27 -5 38.5t-20 11.5q-14 0 -19 -11.5zM520 476
q14 -20 14 -43q0 -21 -16.5 -35t-35.5 -17q-54 -6 -94 -23.5t-72 -48.5q11 24 30.5 64t54 81.5t71.5 41.5q34 0 48 -20zM215.5 402.5q34.5 -41.5 52 -81.5t27.5 -64q-30 38 -68.5 55t-87.5 17q-24 0 -43 15t-19 37q0 26 16.5 44.5t45.5 18.5q42 0 76.5 -41.5zM340 518
q0 -34 -10 -71t-21 -63.5t-14 -33.5q1 8 1 23q0 79 -62 138q-21 21 -21 49q0 19 12 32q20 20 46 20q23 0 43 -19q26 -25 26 -75z" />
    <glyph glyph-name="A" unicode="A" horiz-adv-x="669" 
 />
    <glyph glyph-name="B" unicode="B" horiz-adv-x="569" 
 />
    <glyph glyph-name="C" unicode="C" horiz-adv-x="564" 
 />
    <glyph glyph-name="D" unicode="D" horiz-adv-x="639" 
 />
    <glyph glyph-name="E" unicode="E" horiz-adv-x="602" 
 />
    <glyph glyph-name="F" unicode="F" horiz-adv-x="585" 
 />
    <glyph glyph-name="G" unicode="G" horiz-adv-x="622" 
 />
    <glyph glyph-name="H" unicode="H" horiz-adv-x="666" 
 />
    <glyph glyph-name="I" unicode="I" horiz-adv-x="332" 
 />
    <glyph glyph-name="J" unicode="J" horiz-adv-x="515" 
 />
    <glyph glyph-name="K" unicode="K" horiz-adv-x="664" 
 />
    <glyph glyph-name="L" unicode="L" horiz-adv-x="533" 
 />
    <glyph glyph-name="M" unicode="M" horiz-adv-x="758" 
 />
    <glyph glyph-name="N" unicode="N" horiz-adv-x="668" 
 />
    <glyph glyph-name="O" unicode="O" horiz-adv-x="625" 
 />
    <glyph glyph-name="P" unicode="P" horiz-adv-x="582" 
 />
    <glyph glyph-name="Q" unicode="Q" horiz-adv-x="625" 
 />
    <glyph glyph-name="R" unicode="R" horiz-adv-x="656" 
 />
    <glyph glyph-name="S" unicode="S" horiz-adv-x="544" 
 />
    <glyph glyph-name="T" unicode="T" horiz-adv-x="575" 
 />
    <glyph glyph-name="U" unicode="U" horiz-adv-x="657" 
 />
    <glyph glyph-name="V" unicode="V" horiz-adv-x="647" 
 />
    <glyph glyph-name="W" unicode="W" horiz-adv-x="974" 
 />
    <glyph glyph-name="X" unicode="X" horiz-adv-x="677" 
 />
    <glyph glyph-name="Y" unicode="Y" horiz-adv-x="697" 
 />
    <glyph glyph-name="Z" unicode="Z" horiz-adv-x="604" 
 />
    <glyph glyph-name="bracketleft" unicode="[" 
 />
    <glyph glyph-name="backslash" unicode="\" 
d="M92 196v-98q2 -1 9 -1q18 0 24.5 12t6.5 38t-6.5 38t-24.5 12q-6 0 -9 -1zM213 137v-38h47v-24h-76v145h76v-25h-47v-34h40v-24h-40zM63 75v143q26 4 37 4q33 0 47 -18t14 -57t-14.5 -56.5t-47.5 -17.5q-23 0 -36 2zM344 140l19 80h40l6 -145h-29q0 53 -3 104l-20 -82
h-27l-20 82h-1l-2 -104h-28q2 84 7 145h39zM441 90.5q-12 17.5 -12 56.5t12 57t41 18t41.5 -18t12.5 -57t-12.5 -56.5t-41.5 -17.5t-41 17.5zM463 185.5q-5 -11.5 -5 -38.5q0 -26 5 -38t19 -12q15 0 20 12t5 38q0 27 -5 38.5t-20 11.5q-14 0 -19 -11.5zM520 476
q14 -20 14 -43q0 -21 -16.5 -35t-35.5 -17q-54 -6 -94 -23.5t-72 -48.5q11 24 30.5 64t54 81.5t71.5 41.5q34 0 48 -20zM215.5 402.5q34.5 -41.5 52 -81.5t27.5 -64q-30 38 -68.5 55t-87.5 17q-24 0 -43 15t-19 37q0 26 16.5 44.5t45.5 18.5q42 0 76.5 -41.5zM340 518
q0 -34 -10 -71t-21 -63.5t-14 -33.5q1 8 1 23q0 79 -62 138q-21 21 -21 49q0 19 12 32q20 20 46 20q23 0 43 -19q26 -25 26 -75z" />
    <glyph glyph-name="bracketright" unicode="]" 
 />
    <glyph glyph-name="asciicircum" unicode="^" 
d="M92 196v-98q2 -1 9 -1q18 0 24.5 12t6.5 38t-6.5 38t-24.5 12q-6 0 -9 -1zM213 137v-38h47v-24h-76v145h76v-25h-47v-34h40v-24h-40zM63 75v143q26 4 37 4q33 0 47 -18t14 -57t-14.5 -56.5t-47.5 -17.5q-23 0 -36 2zM344 140l19 80h40l6 -145h-29q0 53 -3 104l-20 -82
h-27l-20 82h-1l-2 -104h-28q2 84 7 145h39zM441 90.5q-12 17.5 -12 56.5t12 57t41 18t41.5 -18t12.5 -57t-12.5 -56.5t-41.5 -17.5t-41 17.5zM463 185.5q-5 -11.5 -5 -38.5q0 -26 5 -38t19 -12q15 0 20 12t5 38q0 27 -5 38.5t-20 11.5q-14 0 -19 -11.5zM520 476
q14 -20 14 -43q0 -21 -16.5 -35t-35.5 -17q-54 -6 -94 -23.5t-72 -48.5q11 24 30.5 64t54 81.5t71.5 41.5q34 0 48 -20zM215.5 402.5q34.5 -41.5 52 -81.5t27.5 -64q-30 38 -68.5 55t-87.5 17q-24 0 -43 15t-19 37q0 26 16.5 44.5t45.5 18.5q42 0 76.5 -41.5zM340 518
q0 -34 -10 -71t-21 -63.5t-14 -33.5q1 8 1 23q0 79 -62 138q-21 21 -21 49q0 19 12 32q20 20 46 20q23 0 43 -19q26 -25 26 -75z" />
    <glyph glyph-name="underscore" unicode="_" 
d="M92 196v-98q2 -1 9 -1q18 0 24.5 12t6.5 38t-6.5 38t-24.5 12q-6 0 -9 -1zM213 137v-38h47v-24h-76v145h76v-25h-47v-34h40v-24h-40zM63 75v143q26 4 37 4q33 0 47 -18t14 -57t-14.5 -56.5t-47.5 -17.5q-23 0 -36 2zM344 140l19 80h40l6 -145h-29q0 53 -3 104l-20 -82
h-27l-20 82h-1l-2 -104h-28q2 84 7 145h39zM441 90.5q-12 17.5 -12 56.5t12 57t41 18t41.5 -18t12.5 -57t-12.5 -56.5t-41.5 -17.5t-41 17.5zM463 185.5q-5 -11.5 -5 -38.5q0 -26 5 -38t19 -12q15 0 20 12t5 38q0 27 -5 38.5t-20 11.5q-14 0 -19 -11.5zM520 476
q14 -20 14 -43q0 -21 -16.5 -35t-35.5 -17q-54 -6 -94 -23.5t-72 -48.5q11 24 30.5 64t54 81.5t71.5 41.5q34 0 48 -20zM215.5 402.5q34.5 -41.5 52 -81.5t27.5 -64q-30 38 -68.5 55t-87.5 17q-24 0 -43 15t-19 37q0 26 16.5 44.5t45.5 18.5q42 0 76.5 -41.5zM340 518
q0 -34 -10 -71t-21 -63.5t-14 -33.5q1 8 1 23q0 79 -62 138q-21 21 -21 49q0 19 12 32q20 20 46 20q23 0 43 -19q26 -25 26 -75z" />
    <glyph glyph-name="grave" unicode="`" 
d="M92 196v-98q2 -1 9 -1q18 0 24.5 12t6.5 38t-6.5 38t-24.5 12q-6 0 -9 -1zM213 137v-38h47v-24h-76v145h76v-25h-47v-34h40v-24h-40zM63 75v143q26 4 37 4q33 0 47 -18t14 -57t-14.5 -56.5t-47.5 -17.5q-23 0 -36 2zM344 140l19 80h40l6 -145h-29q0 53 -3 104l-20 -82
h-27l-20 82h-1l-2 -104h-28q2 84 7 145h39zM441 90.5q-12 17.5 -12 56.5t12 57t41 18t41.5 -18t12.5 -57t-12.5 -56.5t-41.5 -17.5t-41 17.5zM463 185.5q-5 -11.5 -5 -38.5q0 -26 5 -38t19 -12q15 0 20 12t5 38q0 27 -5 38.5t-20 11.5q-14 0 -19 -11.5zM520 476
q14 -20 14 -43q0 -21 -16.5 -35t-35.5 -17q-54 -6 -94 -23.5t-72 -48.5q11 24 30.5 64t54 81.5t71.5 41.5q34 0 48 -20zM215.5 402.5q34.5 -41.5 52 -81.5t27.5 -64q-30 38 -68.5 55t-87.5 17q-24 0 -43 15t-19 37q0 26 16.5 44.5t45.5 18.5q42 0 76.5 -41.5zM340 518
q0 -34 -10 -71t-21 -63.5t-14 -33.5q1 8 1 23q0 79 -62 138q-21 21 -21 49q0 19 12 32q20 20 46 20q23 0 43 -19q26 -25 26 -75z" />
    <glyph glyph-name="a" unicode="a" horiz-adv-x="506" 
 />
    <glyph glyph-name="b" unicode="b" horiz-adv-x="525" 
 />
    <glyph glyph-name="c" unicode="c" horiz-adv-x="461" 
 />
    <glyph glyph-name="d" unicode="d" horiz-adv-x="533" 
 />
    <glyph glyph-name="e" unicode="e" horiz-adv-x="460" 
 />
    <glyph glyph-name="f" unicode="f" horiz-adv-x="356" 
 />
    <glyph glyph-name="g" unicode="g" horiz-adv-x="514" 
 />
    <glyph glyph-name="h" unicode="h" horiz-adv-x="586" 
 />
    <glyph glyph-name="i" unicode="i" horiz-adv-x="310" 
 />
    <glyph glyph-name="j" unicode="j" horiz-adv-x="278" 
 />
    <glyph glyph-name="k" unicode="k" horiz-adv-x="591" 
 />
    <glyph glyph-name="l" unicode="l" horiz-adv-x="310" 
 />
    <glyph glyph-name="m" unicode="m" horiz-adv-x="864" 
 />
    <glyph glyph-name="n" unicode="n" horiz-adv-x="587" 
 />
    <glyph glyph-name="o" unicode="o" horiz-adv-x="504" 
 />
    <glyph glyph-name="p" unicode="p" horiz-adv-x="525" 
 />
    <glyph glyph-name="q" unicode="q" horiz-adv-x="504" 
 />
    <glyph glyph-name="r" unicode="r" horiz-adv-x="480" 
 />
    <glyph glyph-name="s" unicode="s" horiz-adv-x="420" 
 />
    <glyph glyph-name="t" unicode="t" horiz-adv-x="380" 
 />
    <glyph glyph-name="u" unicode="u" horiz-adv-x="585" 
d="M314.5 0h-116.5q-133 0 66 0t160 0h-109.5z" />
    <glyph glyph-name="v" unicode="v" horiz-adv-x="570" 
 />
    <glyph glyph-name="w" unicode="w" horiz-adv-x="848" 
 />
    <glyph glyph-name="x" unicode="x" horiz-adv-x="608" 
 />
    <glyph glyph-name="y" unicode="y" horiz-adv-x="592" 
 />
    <glyph glyph-name="z" unicode="z" horiz-adv-x="465" 
 />
    <glyph glyph-name="braceleft" unicode="{" 
 />
    <glyph glyph-name="bar" unicode="|" 
d="M92 196v-98q2 -1 9 -1q18 0 24.5 12t6.5 38t-6.5 38t-24.5 12q-6 0 -9 -1zM213 137v-38h47v-24h-76v145h76v-25h-47v-34h40v-24h-40zM63 75v143q26 4 37 4q33 0 47 -18t14 -57t-14.5 -56.5t-47.5 -17.5q-23 0 -36 2zM344 140l19 80h40l6 -145h-29q0 53 -3 104l-20 -82
h-27l-20 82h-1l-2 -104h-28q2 84 7 145h39zM441 90.5q-12 17.5 -12 56.5t12 57t41 18t41.5 -18t12.5 -57t-12.5 -56.5t-41.5 -17.5t-41 17.5zM463 185.5q-5 -11.5 -5 -38.5q0 -26 5 -38t19 -12q15 0 20 12t5 38q0 27 -5 38.5t-20 11.5q-14 0 -19 -11.5zM520 476
q14 -20 14 -43q0 -21 -16.5 -35t-35.5 -17q-54 -6 -94 -23.5t-72 -48.5q11 24 30.5 64t54 81.5t71.5 41.5q34 0 48 -20zM215.5 402.5q34.5 -41.5 52 -81.5t27.5 -64q-30 38 -68.5 55t-87.5 17q-24 0 -43 15t-19 37q0 26 16.5 44.5t45.5 18.5q42 0 76.5 -41.5zM340 518
q0 -34 -10 -71t-21 -63.5t-14 -33.5q1 8 1 23q0 79 -62 138q-21 21 -21 49q0 19 12 32q20 20 46 20q23 0 43 -19q26 -25 26 -75z" />
    <glyph glyph-name="braceright" unicode="}" 
 />
    <glyph glyph-name="asciitilde" unicode="~" 
d="M92 196v-98q2 -1 9 -1q18 0 24.5 12t6.5 38t-6.5 38t-24.5 12q-6 0 -9 -1zM213 137v-38h47v-24h-76v145h76v-25h-47v-34h40v-24h-40zM63 75v143q26 4 37 4q33 0 47 -18t14 -57t-14.5 -56.5t-47.5 -17.5q-23 0 -36 2zM344 140l19 80h40l6 -145h-29q0 53 -3 104l-20 -82
h-27l-20 82h-1l-2 -104h-28q2 84 7 145h39zM441 90.5q-12 17.5 -12 56.5t12 57t41 18t41.5 -18t12.5 -57t-12.5 -56.5t-41.5 -17.5t-41 17.5zM463 185.5q-5 -11.5 -5 -38.5q0 -26 5 -38t19 -12q15 0 20 12t5 38q0 27 -5 38.5t-20 11.5q-14 0 -19 -11.5zM520 476
q14 -20 14 -43q0 -21 -16.5 -35t-35.5 -17q-54 -6 -94 -23.5t-72 -48.5q11 24 30.5 64t54 81.5t71.5 41.5q34 0 48 -20zM215.5 402.5q34.5 -41.5 52 -81.5t27.5 -64q-30 38 -68.5 55t-87.5 17q-24 0 -43 15t-19 37q0 26 16.5 44.5t45.5 18.5q42 0 76.5 -41.5zM340 518
q0 -34 -10 -71t-21 -63.5t-14 -33.5q1 8 1 23q0 79 -62 138q-21 21 -21 49q0 19 12 32q20 20 46 20q23 0 43 -19q26 -25 26 -75z" />
    <glyph glyph-name="uni10D0" unicode="&#x10d0;" horiz-adv-x="486" 
 />
    <glyph glyph-name="uni10D8" unicode="&#x10d8;" horiz-adv-x="505" 
 />
    <glyph glyph-name="uni10D9" unicode="&#x10d9;" horiz-adv-x="445" 
 />
    <glyph glyph-name="uni10DB" unicode="&#x10db;" horiz-adv-x="444" 
 />
    <glyph glyph-name="uni10DD" unicode="&#x10dd;" horiz-adv-x="623" 
 />
    <glyph glyph-name="uni10E0" unicode="&#x10e0;" horiz-adv-x="540" 
 />
    <glyph glyph-name="uni10E1" unicode="&#x10e1;" horiz-adv-x="426" 
 />
    <glyph glyph-name="uni10E3" unicode="&#x10e3;" horiz-adv-x="495" 
 />
    <glyph glyph-name="uni10E8" unicode="&#x10e8;" horiz-adv-x="490" 
 />
    <glyph glyph-name="uni1C90" unicode="&#x1c90;" horiz-adv-x="486" 
 />
    <glyph glyph-name="uni1C92" unicode="&#x1c92;" horiz-adv-x="600" 
d="M4556 134q0 6 3 48q6 64 6 81q0 39 -14 39q-9 0 -20.5 -17.5t-20 -45t-8.5 -55.5q0 -25 7 -40.5t19 -30.5q8 -12 12 -19t4 -17q0 -30 -33 -52.5t-104 -22.5q-69 0 -95 21.5t-26 48.5q0 9 3.5 17t11.5 19q7 10 14 24t12 31q18 66 18 133q0 40 -6 86q-5 35 -13 57.5
t-20 44.5q-5 10 -9 19.5t-4 18.5q0 21 19.5 35.5t46.5 15.5q40 1 64 -13t44 -47q16 -26 24.5 -69t5.5 -87q43 48 120 48q126 -1 126 -184q0 -11 -3 -65l-2 -30q0 -13 7.5 -18.5t23.5 -11.5q14 -6 22 -10.5t12 -14.5q3 -6 3 -13q0 -25 -33.5 -42t-100.5 -17q-116 0 -116 135z
M4917.5 19.5q-51.5 20.5 -85.5 52t-48 65.5q-7 17 -7 40q0 40 24.5 71.5t69.5 31.5q28 0 48.5 -11.5t31.5 -25t30 -39.5q28 -41 46.5 -60.5t35.5 -19.5q10 0 10 15q0 17 -10 35q-11 21 -21.5 32t-50.5 47q-113 102 -113 196q0 62 35 94t89 32q34 0 54 -7t35 -20
q15 -12 15 -27q0 -7 -5 -11.5t-14 -4.5q-29 0 -41.5 -7t-12.5 -24t16.5 -40t42.5 -42q61 -46 91.5 -75.5t43 -55.5t15.5 -61l1 -17q0 -53 -25 -95t-72.5 -65.5t-112.5 -23.5q-64 0 -115.5 20.5zM5362.5 34.5q-51.5 34.5 -77.5 86t-26 103.5q0 73 32 112.5t99 39.5
q44 0 69 -11.5t48 -33.5l1 76q0 44 -5 68.5t-19 23.5q-10 0 -18.5 -8.5t-23.5 -28.5q-23 -33 -45 -51.5t-56 -18.5q-27 0 -46 17.5t-19 47.5t25.5 57t70 43.5t97.5 16.5q124 0 169 -80.5t45 -199.5q0 -70 -18.5 -137t-62 -112t-115.5 -45q-73 0 -124.5 34.5zM5503 144.5
q6 20.5 6 59.5q0 21 -9 37t-24 16q-13 0 -20.5 -16.5t-7.5 -39.5q0 -37 9 -57t25 -20q15 0 21 20.5zM6080 304l2 -26q3 -22 3 -44q0 -35 -16.5 -53.5t-61.5 -18.5q-47 0 -64 18t-17 53l3 43q4 34 4 53q0 84 -5 122.5t-20 38.5q-11 0 -16.5 -12.5t-8.5 -46.5q-5 -67 -5 -104
q0 -126 33 -193q12 -25 31 -44q10 -9 14 -16.5t4 -21.5q0 -52 -131 -52q-71 0 -91 15t-20 37q0 9 6 17.5t22 24.5q12 12 12 29q0 11 -5.5 26.5t-12.5 31.5q-17 42 -27 78t-10 83q0 119 48.5 175.5t133.5 56.5q48 0 80 -22.5t46 -59.5q17 37 47.5 59.5t65.5 22.5
q85 0 133.5 -56.5t48.5 -175.5q0 -47 -10 -83t-27 -78q-7 -16 -12.5 -31.5t-5.5 -26.5q0 -17 12 -29q16 -16 22 -24.5t6 -17.5q0 -22 -20 -37t-91 -15q-131 0 -131 52q0 14 4 21.5t14 16.5q19 19 31 44q33 67 33 193q0 37 -5 104q-3 36 -7 47.5t-15 11.5q-15 0 -20 -39
t-5 -121q0 -13 1 -26zM6337 473q1 18 -4.5 29.5t-14.5 21.5q-4 6 -7 11.5t-3 9.5q0 15 16.5 22t37.5 7q29 0 66.5 -18.5t55.5 -67.5q16 -43 16 -118l-1 -54q-1 -17 -1 -50q0 -24 1 -35q10 -108 40 -108q21 0 21 35q0 22 -5 43t-17 61q-7 21 -12.5 42t-5.5 35q0 28 24 41.5
t61 13.5q30 0 58.5 -15t30.5 -34q3 -16 -9.5 -25t-34.5 -8q28 -22 46 -56.5t18 -78.5q0 -46 -22.5 -86.5t-67.5 -65.5t-109 -25q-68 0 -110 31.5t-60 80t-16 99.5zM6973.5 439q10.5 -52 10.5 -116q0 -50 -2.5 -80.5t-9.5 -77.5q-9 -58 -10 -70q-1 -5 -1 -15q0 -80 120 -80
q43 0 74.5 13t31.5 39q0 16 -8 25.5t-24 19.5q-15 10 -21.5 17.5t-6.5 19.5q0 6 3.5 13l7.5 15q17 29 28 64.5t11 102.5q0 62 -24.5 118t-77 91.5t-132.5 35.5q-121 0 -174.5 -72t-53.5 -173q0 -62 10 -97.5t26 -66.5q4 -8 7.5 -16t3.5 -15q0 -13 -7 -20.5t-21 -16.5
q-16 -10 -24 -19.5t-8 -25.5q0 -26 31.5 -39t74.5 -13q130 0 118 95l-11 77q-7 47 -10 75.5t-3 74.5q0 70 9.5 119.5t31.5 49.5q20 0 30.5 -52zM7309.5 19.5q-51.5 20.5 -85.5 52t-48 65.5q-7 17 -7 40q0 40 24.5 71.5t69.5 31.5q28 0 48.5 -11.5t31.5 -25t30 -39.5
q28 -41 46.5 -60.5t35.5 -19.5q10 0 10 15q0 17 -10 35q-11 21 -21.5 32t-50.5 47q-113 102 -113 196q0 62 35 94t89 32q34 0 54 -7t35 -20q15 -12 15 -27q0 -7 -5 -11.5t-14 -4.5q-29 0 -41.5 -7t-12.5 -24t16.5 -40t42.5 -42q61 -46 91.5 -75.5t43 -55.5t15.5 -61l1 -17
q0 -53 -25 -95t-72.5 -65.5t-112.5 -23.5q-64 0 -115.5 20.5z" />
    <glyph glyph-name="uni1C98" unicode="&#x1c98;" horiz-adv-x="505" 
 />
    <glyph glyph-name="uni1C99" unicode="&#x1c99;" horiz-adv-x="445" 
 />
    <glyph glyph-name="uni1C9B" unicode="&#x1c9b;" horiz-adv-x="444" 
 />
    <glyph glyph-name="uni1C9D" unicode="&#x1c9d;" horiz-adv-x="623" 
 />
    <glyph glyph-name="uni1CA0" unicode="&#x1ca0;" horiz-adv-x="540" 
 />
    <glyph glyph-name="uni1CA1" unicode="&#x1ca1;" horiz-adv-x="426" 
 />
    <glyph glyph-name="uni1CA3" unicode="&#x1ca3;" horiz-adv-x="495" 
 />
    <glyph glyph-name="uni1CA8" unicode="&#x1ca8;" horiz-adv-x="490" 
 />
    </font>
</defs>
</svg>
